REM DIRINDEX 1\2,1\3,1\4,1\5
REM DIRNAME folder01,folder02,folder03,folder04,folder05
TITLE ""
FILE "1Q_t_0020-0029.mp3" MP3
  TRACK 01 AUDIO
    TITLE "3:cjc004_0960"
    INDEX 01 00:00:00
  TRACK 02 AUDIO
    TITLE "0:"
    INDEX 01 00:00:64
  TRACK 03 AUDIO
    TITLE "4:cjc004_0961"
    INDEX 01 00:01:15
  TRACK 04 AUDIO
    TITLE "0:"
    INDEX 01 00:02:38
  TRACK 05 AUDIO
    TITLE "5:cjc004_0962"
    INDEX 01 00:02:63
  TRACK 06 AUDIO
    TITLE "0:"
    INDEX 01 00:08:05
  TRACK 07 AUDIO
    TITLE "3:cjc004_0963"
    INDEX 01 00:08:58
  TRACK 08 AUDIO
    TITLE "0:"
    INDEX 01 00:10:00
  TRACK 09 AUDIO
    TITLE "4:cjc004_0964"
    INDEX 01 00:10:12
  TRACK 10 AUDIO
    TITLE "0:"
    INDEX 01 00:11:39
  TRACK 11 AUDIO
    TITLE "5:cjc004_0965"
    INDEX 01 00:11:66
  TRACK 12 AUDIO
    TITLE "0:"
    INDEX 01 00:16:10
  TRACK 13 AUDIO
    TITLE "3:cjc004_0966"
    INDEX 01 00:16:67
  TRACK 14 AUDIO
    TITLE "0:"
    INDEX 01 00:17:65
  TRACK 15 AUDIO
    TITLE "4:cjc004_0967"
    INDEX 01 00:18:09
  TRACK 16 AUDIO
    TITLE "0:"
    INDEX 01 00:19:50
  TRACK 17 AUDIO
    TITLE "5:cjc004_0968"
    INDEX 01 00:20:06
  TRACK 18 AUDIO
    TITLE "0:"
    INDEX 01 00:24:49
  TRACK 19 AUDIO
    TITLE "3:cjc004_0969"
    INDEX 01 00:25:29
  TRACK 20 AUDIO
    TITLE "0:"
    INDEX 01 00:26:62
  TRACK 21 AUDIO
    TITLE "4:cjc004_0970"
    INDEX 01 00:27:06
  TRACK 22 AUDIO
    TITLE "0:"
    INDEX 01 00:28:31
  TRACK 23 AUDIO
    TITLE "5:cjc004_0971"
    INDEX 01 00:28:57
  TRACK 24 AUDIO
    TITLE "0:"
    INDEX 01 00:33:40
  TRACK 25 AUDIO
    TITLE "3:cjc004_0972"
    INDEX 01 00:34:18
  TRACK 26 AUDIO
    TITLE "0:"
    INDEX 01 00:35:17
  TRACK 27 AUDIO
    TITLE "4:cjc004_0973"
    INDEX 01 00:35:43
  TRACK 28 AUDIO
    TITLE "0:"
    INDEX 01 00:36:44
  TRACK 29 AUDIO
    TITLE "5:cjc004_0974"
    INDEX 01 00:36:72
  TRACK 30 AUDIO
    TITLE "0:"
    INDEX 01 00:43:25
  TRACK 31 AUDIO
    TITLE "3:cjc004_0975"
    INDEX 01 00:44:03
  TRACK 32 AUDIO
    TITLE "0:"
    INDEX 01 00:45:39
  TRACK 33 AUDIO
    TITLE "4:cjc004_0976"
    INDEX 01 00:45:49
  TRACK 34 AUDIO
    TITLE "0:"
    INDEX 01 00:47:05
  TRACK 35 AUDIO
    TITLE "5:cjc004_0977"
    INDEX 01 00:47:30
  TRACK 36 AUDIO
    TITLE "0:"
    INDEX 01 00:52:24
  TRACK 37 AUDIO
    TITLE "3:cjc004_0978"
    INDEX 01 00:52:69
  TRACK 38 AUDIO
    TITLE "0:"
    INDEX 01 00:54:15
  TRACK 39 AUDIO
    TITLE "4:cjc004_0979"
    INDEX 01 00:54:60
  TRACK 40 AUDIO
    TITLE "0:"
    INDEX 01 00:55:69
  TRACK 41 AUDIO
    TITLE "5:cjc004_0980"
    INDEX 01 00:56:22
  TRACK 42 AUDIO
    TITLE "0:"
    INDEX 01 01:00:66
  TRACK 43 AUDIO
    TITLE "3:cjc004_0981"
    INDEX 01 01:01:62
  TRACK 44 AUDIO
    TITLE "0:"
    INDEX 01 01:03:16
  TRACK 45 AUDIO
    TITLE "4:cjc004_0982"
    INDEX 01 01:03:33
  TRACK 46 AUDIO
    TITLE "0:"
    INDEX 01 01:04:54
  TRACK 47 AUDIO
    TITLE "5:cjc004_0983"
    INDEX 01 01:05:03
  TRACK 48 AUDIO
    TITLE "0:"
    INDEX 01 01:09:38
  TRACK 49 AUDIO
    TITLE "3:cjc004_0984"
    INDEX 01 01:10:16
  TRACK 50 AUDIO
    TITLE "0:"
    INDEX 01 01:11:39
  TRACK 51 AUDIO
    TITLE "4:cjc004_0985"
    INDEX 01 01:11:72
  TRACK 52 AUDIO
    TITLE "0:"
    INDEX 01 01:13:18
  TRACK 53 AUDIO
    TITLE "5:cjc004_0986"
    INDEX 01 01:13:45
  TRACK 54 AUDIO
    TITLE "0:"
    INDEX 01 01:17:28
  TRACK 55 AUDIO
    TITLE "3:cjc004_0987"
    INDEX 01 01:18:11
  TRACK 56 AUDIO
    TITLE "0:"
    INDEX 01 01:19:23
  TRACK 57 AUDIO
    TITLE "4:cjc004_0988"
    INDEX 01 01:19:52
  TRACK 58 AUDIO
    TITLE "0:"
    INDEX 01 01:20:65
  TRACK 59 AUDIO
    TITLE "5:cjc004_0989"
    INDEX 01 01:21:23
  TRACK 60 AUDIO
    TITLE "0:"
    INDEX 01 01:25:70
